<svg id="Layer_1" xmlns="http://www.w3.org/2000/svg" viewBox="0 0 948.5 468"><style>.st0{fill:#fff}.st1{fill:#e53328}.st2{fill:#80ba27}.st3{fill:#007c32}</style><path class="st0" d="M301.4 261.1c-1.4-3.3-3.8-8.9-3.8-8.9l-5.5-11.6s-61.5-131.3-61.7-131.5c-.5-1.1-1.1-2-1.7-2.8-1.4-2.4-3.9-3.8-6.5-3.8h-33.5c-4.2 0-9.2 4.2-6.8 9.7 1.4 3.3 28.2 60.4 28.2 60.4h-37.8c-3.8 0-6.9 3.1-6.9 6.9v26.8c0 3.8 3.1 6.9 6.9 6.9H229l23.5 50.3c.1.3.3.6.5.8.5 1.1 1.1 2 1.7 2.8 1.4 2.4 3.9 3.8 6.5 3.8h33.6c4-.1 8.9-4.3 6.6-9.8zm43.3 9.1h-32.3c-1.5 0-2.7-.5-3.7-1.6s-1.5-2.4-1.5-3.9V107.4c0-1.5.5-2.8 1.5-3.9s2.2-1.6 3.7-1.6h67.1c8.4 0 16.1 1.5 23.1 4.5 7.1 3 13.1 7.2 18 12.5 5 5.4 8.9 11.7 11.7 19.1 2.8 7.4 4.2 15.5 4.2 24.4 0 4.9-.5 9.8-1.6 14.6-1.1 4.8-2.6 9.4-4.6 13.7-2 4.3-4.4 8.2-7.1 11.6-2.7 3.5-5.8 6.3-9.3 8.6-1.2.9-1.9 2-2.3 3.3-.4 1.3-.1 2.6.8 3.8 5.5 7.7 11.2 15.6 17.3 23.7 6 8.1 11.4 15.6 16.2 22.3.9 1.2 1.1 2.6.6 4-.4 1.5-1.4 2.2-2.8 2.2h-40.2c-1.4 0-3-.4-4.6-1.3-1.7-.8-2.9-1.9-3.8-3.1-4.6-6.4-9.1-13-13.6-19.5-4.5-6.6-9-13.3-13.4-20-.9-1.2-2.1-2.3-3.7-3.1-1.6-.8-3.1-1.3-4.5-1.3h-4.7c-1.4 0-2.6.5-3.7 1.6-1 1.1-1.5 2.4-1.5 3.9v37.3c0 1.5-.5 2.8-1.5 3.9-1.1 1.1-2.3 1.6-3.8 1.6zm10.4-90.6h22.8c1.7 0 3.5-.3 5.4-1 1.9-.7 3.6-1.8 5.2-3.2 1.6-1.5 2.9-3.3 3.9-5.4 1-2.1 1.5-4.7 1.5-7.6 0-1.5-.3-3.3-.8-5.4-.5-2.1-1.4-4.1-2.6-6-1.2-1.9-2.9-3.5-4.9-4.8-2.1-1.3-4.6-2-7.6-2h-22.8c-1.4 0-2.6.5-3.6 1.6s-1.5 2.4-1.5 3.9v24.4c0 1.5.5 2.8 1.5 3.9.8 1.1 2.1 1.6 3.5 1.6zm256 46c-4.2 7.2-8.8 13.7-13.8 19.6-5 5.9-10.7 10.9-17 15-6.3 4.1-13.2 7.3-20.8 9.6-7.6 2.3-16.1 3.4-25.3 3.4-11.5 0-22.3-2.3-32.4-6.9-10.1-4.6-18.9-10.8-26.4-18.6-7.6-7.8-13.5-17-17.8-27.6-4.3-10.6-6.5-21.8-6.5-33.8 0-12 2.2-23.2 6.5-33.8 4.3-10.6 10.3-19.8 17.8-27.6 7.6-7.8 16.4-14 26.5-18.6 10.1-4.6 20.9-6.9 32.4-6.9 9.5 0 18.1 1.2 25.7 3.4 7.6 2.3 14.5 5.5 20.7 9.7 6.2 4.1 11.8 9.2 16.7 15.1 5 5.9 9.5 12.4 13.7 19.4.7 1.2.9 2.5.4 3.9-.4 1.4-1.3 2.4-2.6 3l-30.7 12.9c-1.4.6-2.9.6-4.3 0s-2.5-1.5-3.2-2.8c-4.2-7-9.2-12.5-15.1-16.2-5.9-3.8-13-5.6-21.4-5.6-5.5 0-10.6 1.2-15.4 3.7-4.8 2.5-9 5.7-12.6 9.8-3.6 4.1-6.4 8.8-8.4 14.2-2 5.4-3 10.9-3 16.6 0 5.8 1 11.4 3 16.7 2 5.3 4.8 10 8.4 13.9 3.6 4 7.8 7.2 12.6 9.7 4.8 2.5 10 3.7 15.4 3.7 7.9 0 15.1-2 21.5-6.1s11.5-9.3 15.2-15.7c.7-1.2 1.8-2.1 3.1-2.8 1.4-.6 2.8-.6 4.2 0l30.7 12.9c1.3.6 2.2 1.6 2.6 2.9.5 1.2.4 2.5-.4 3.9zm59-75.9v9.7c0 1.5.5 2.8 1.5 3.9s2.2 1.6 3.7 1.6h58.5c1.4 0 2.7.5 3.7 1.6s1.5 2.4 1.5 3.9v31.7c0 1.5-.5 2.8-1.5 3.9s-2.2 1.6-3.7 1.6h-58.5c-1.4 0-2.7.5-3.7 1.6s-1.5 2.4-1.5 3.9v8.7c0 1.5.5 2.8 1.5 3.9s2.2 1.6 3.7 1.6h67.1c1.4 0 2.7.5 3.7 1.6s1.5 2.4 1.5 3.9v31.7c0 1.5-.5 2.8-1.5 3.9s-2.2 1.6-3.7 1.6H632.5c-1.4 0-2.7-.5-3.7-1.6s-1.5-2.4-1.5-3.9V107.2c0-1.5.5-2.8 1.5-3.9s2.2-1.6 3.7-1.6h109.9c1.4 0 2.7.5 3.7 1.6s1.5 2.4 1.5 3.9v31.3c0 1.5-.5 2.8-1.5 3.9s-2.2 1.6-3.7 1.6h-67.1c-1.4 0-2.7.5-3.7 1.6-1 1.3-1.5 2.6-1.5 4.1zm118.2 62.6c7.8 5.4 15.5 9.6 23.1 12.6 7.6 3.1 14.8 4.6 21.4 4.6 6.3 0 11.2-1 14.5-2.9 3.3-1.9 5-4.8 5-8.6 0-2-.7-3.6-2.2-4.7-1.4-1.2-3.4-2.1-5.7-2.9-2.4-.8-5.2-1.4-8.3-1.8-3.2-.5-6.4-1.1-9.7-1.8-3.2-.6-6.9-1.3-11.1-2.2-4.2-.8-8.6-2.1-13.1-3.7s-8.9-3.6-13.3-6.1c-4.4-2.5-8.3-5.6-11.8-9.4-3.5-3.8-6.2-8.4-8.3-13.7-2.1-5.3-3.1-11.5-3.1-18.7 0-10.6 1.9-19.3 5.8-26.2 3.9-6.9 8.8-12.4 14.8-16.4 6-4.1 12.6-6.9 20-8.5 7.3-1.6 14.5-2.4 21.4-2.4 12.1 0 22.9 1.9 32.5 5.6 9.6 3.8 18.7 9.2 27.5 16.4 1.1 1.1 1.8 2.4 1.9 3.9.1 1.5-.2 2.9-1.1 4.1L871.7 155c-.9 1.2-2 2-3.5 2.3-1.4.3-2.7 0-3.9-.9-7.3-4.9-14.2-8.4-20.5-10.5-6.3-2.1-12.2-3.1-17.5-3.1-1.6 0-3.4 0-5.5.1s-4.1.4-5.9.9c-1.9.5-3.4 1.4-4.6 2.6-1.2 1.2-1.8 2.9-1.8 5.1 0 2.1 1.5 4.1 4.5 5.8 3 1.7 6.5 3.1 10.4 4.4 3.9 1.2 7.6 2.2 11.2 2.9 3.6.7 5.9 1.1 6.9 1.3 5.2 1.1 10.9 2.6 17.1 4.7 6.2 2.1 12 5.1 17.4 9.2 5.4 4.1 9.9 9.4 13.6 15.9 3.7 6.5 5.5 14.7 5.5 24.5 0 9.2-1.5 17.1-4.5 23.8-3 6.7-7.2 12.2-12.6 16.4-5.4 4.3-11.9 7.5-19.4 9.5-7.6 2.1-15.9 3.1-25.2 3.1-7.5 0-14.5-.7-20.9-2-6.5-1.3-12.5-3.1-18.1-5.4-5.6-2.3-10.8-5-15.7-8.2-4.8-3.1-9.2-6.5-13.3-10-1.2-.9-1.8-2.2-1.9-3.8-.1-1.6.2-3 1.1-4.3l16.6-25.5c.9-1.2 2-2 3.5-2.3 1.2-.2 2.5 0 3.6.8zM351.6 334.2v9.5c0 1.5.5 2.8 1.5 3.8 1 1.1 2.2 1.6 3.6 1.6h57.7c1.4 0 2.6.5 3.6 1.6s1.5 2.4 1.5 3.9v31.8c0 1.5-.5 2.8-1.5 3.9s-2.2 1.6-3.6 1.6h-57.7c-1.4 0-2.6.5-3.6 1.6s-1.5 2.3-1.5 3.9v50.3c0 1.5-.5 2.8-1.5 3.9s-2.2 1.6-3.6 1.6h-32.1c-1.4 0-2.6-.5-3.6-1.6s-1.5-2.3-1.5-3.9V292.1c0-1.5.5-2.8 1.5-3.9s2.2-1.6 3.6-1.6h108.5c1.4 0 2.6.5 3.6 1.6s1.5 2.4 1.5 3.9v31.3c0 1.5-.5 2.8-1.5 3.9s-2.2 1.6-3.6 1.6h-66.2c-1.4 0-2.6.5-3.6 1.6-1 .9-1.5 2.2-1.5 3.7zM489.4 453h-32c-1.4 0-2.7-.5-3.7-1.6s-1.5-2.3-1.5-3.9V291.9c0-1.5.5-2.8 1.5-3.9s2.2-1.6 3.6-1.6h66.4c8.3 0 15.9 1.5 22.9 4.4 7 3 12.9 7.1 17.8 12.4 4.9 5.3 8.8 11.6 11.5 18.9 2.8 7.3 4.2 15.3 4.2 24.1 0 4.9-.5 9.7-1.6 14.4-1.1 4.8-2.6 9.3-4.6 13.5-2 4.2-4.3 8.1-7.1 11.5-2.7 3.4-5.8 6.3-9.2 8.5-1.1.9-1.9 2-2.2 3.3-.4 1.3-.1 2.5.8 3.8 5.4 7.6 11.1 15.4 17.1 23.4 6 8 11.3 15.4 16 22.1.9 1.2 1.1 2.5.6 4-.4 1.4-1.4 2.2-2.8 2.2h-39.7c-1.4 0-3-.4-4.6-1.2-1.6-.8-2.9-1.9-3.7-3.1-4.5-6.4-9-12.8-13.5-19.3s-8.9-13.1-13.3-19.8c-.9-1.2-2.1-2.2-3.6-3.1-1.6-.8-3-1.3-4.5-1.3h-4.7c-1.4 0-2.6.5-3.6 1.6s-1.5 2.3-1.5 3.9v36.9c0 1.5-.5 2.8-1.5 3.9-.9 1.1-2.1 1.6-3.5 1.6zm10.3-89.7h22.5c1.7 0 3.5-.3 5.3-1 1.8-.7 3.5-1.7 5.1-3.2 1.6-1.4 2.8-3.2 3.8-5.3 1-2.1 1.5-4.6 1.5-7.5 0-1.5-.2-3.3-.7-5.3-.5-2-1.3-4-2.5-5.9-1.2-1.9-2.8-3.5-4.9-4.8-2.1-1.3-4.6-1.9-7.5-1.9h-22.5c-1.4 0-2.6.5-3.6 1.6s-1.5 2.4-1.5 3.9V358c0 1.5.5 2.8 1.5 3.9.8.9 2 1.4 3.5 1.4zm102.9-71.7c0-1.5.5-2.8 1.5-3.9s2.2-1.6 3.6-1.6h32.1c1.4 0 2.6.5 3.6 1.6s1.5 2.4 1.5 3.9v92.1c0 5.9.9 10.8 2.7 14.7 1.8 3.9 4 6.9 6.7 9.1 2.6 2.2 5.5 3.8 8.5 4.7 3 .9 5.7 1.4 8.1 1.4 2.4 0 5.1-.4 8.1-1.4 3-.9 5.8-2.5 8.4-4.7 2.6-2.2 4.8-5.2 6.5-9.1 1.8-3.9 2.7-8.8 2.7-14.7v-92.1c0-1.5.5-2.8 1.5-3.9s2.2-1.6 3.6-1.6h32.1c1.4 0 2.6.5 3.6 1.6s1.5 2.4 1.5 3.9v92.1c0 10.8-1.6 20.5-4.8 29.3-3.2 8.8-7.8 16.3-13.8 22.5-6 6.2-13.2 11-21.5 14.4-8.4 3.4-17.7 5.1-27.9 5.1s-19.6-1.7-27.9-5.1c-8.4-3.4-15.6-8.2-21.5-14.4-6-6.2-10.6-13.7-13.9-22.5-3.3-8.8-4.9-18.6-4.9-29.3l-.1-92.1zM932.4 328h-29.9c-1.4 0-2.6.5-3.6 1.6s-1.5 2.4-1.5 3.9v113.7c0 1.5-.5 2.8-1.4 3.9-.9 1.1-2.2 1.6-3.7 1.6h-32c-1.4 0-2.6-.5-3.6-1.6s-1.5-2.4-1.5-3.9V333.5c0-1.5-.5-2.8-1.4-3.9-.9-1.1-2.2-1.6-3.7-1.6h-30.3c-1.4 0-2.6-.5-3.6-1.6s-1.5-2.3-1.5-3.9v-30.9c0-1.5.5-2.8 1.5-3.9s2.2-1.6 3.6-1.6h112.8c1.6 0 2.8.5 3.7 1.6.9 1.1 1.4 2.4 1.4 3.9v30.9c0 1.5-.5 2.8-1.4 3.9-1.1 1-2.4 1.6-3.9 1.6z"/><path class="st1" d="M175.5 260.1c-1.4-3.3-3.8-8.9-3.8-8.9l-5.5-11.6-12.2-26.1h-.1l-17.6-37.7c-.8-2-2.7-3.4-5-3.4H107c-4.2 0-7.6 3.4-7.6 7.6v25c0 4.2 3.4 7.6 7.6 7.6h14.8c-7 6.8-16.6 11-27.1 11-21.5 0-39-17.5-39-39 0-20.7 17-37.9 37.7-38.8h.4c2 0 3.7-1.1 4.7-2.7.8-1.2 1.1-2.8 1.1-4.2l.3-35c-.1-1.5-.6-2.8-1.8-3.7-1.7-1.4-4.2-1.4-5.7-1.3-4.7.3-8.5.8-12.3 1.6-40.2 6.9-70.8 41.9-70.8 84.1 0 47.2 38.2 85.4 85.4 85.4 11.6 0 22.6-2.3 32.6-6.5.7 1.4 1.1 2.3 1.2 2.4 1.4 2.4 3.9 3.8 6.6 3.8h33.5c4.3.1 9.2-4 6.9-9.6z"/><path class="st2" d="M58.6 48.3c-8.2-15.7-7.3-31.7.5-35.3 9.1-4.2 21.2 5.1 27.9 21.6 6.7 16.4-.2 36.5-.2 36.5s-19.6-6.4-28.2-22.8z"/><path class="st3" d="M101.4 54.4c6.9-14.2 20.1-21.1 26.6-17.2 6.5 3.9 6.5 16.8-1.7 30.3s-26.2 19.2-26.2 19.2-5.9-17.5 1.3-32.3z"/><path class="st0" d="M794.3 451.8h-34.1c-1.7 0-3-.5-3.9-1.6-1-1.1-1.5-2.3-1.5-3.9V291.5c0-1.5.5-2.8 1.5-3.9s2.3-1.6 3.9-1.6h34.1c1.5 0 2.8.5 3.8 1.6 1.1 1.1 1.6 2.3 1.6 3.9v154.8c0 1.5-.5 2.8-1.6 3.9-1 1.1-2.3 1.6-3.8 1.6z"/></svg>